<?xml version="1.0" encoding="UTF-8"?>
<svg xmlns="http://www.w3.org/2000/svg" xmlns:xlink="http://www.w3.org/1999/xlink" width="1920" height="1080" viewBox="0 0 1920 1080">
<defs>
<g>
<g id="glyph-0-0">
<path d="M 5.40625 -1.265625 C 4.863281 -0.421875 4.25 0.015625 3.5625 0.046875 C 3.15625 0.046875 2.765625 -0.03125 2.390625 -0.1875 C 2.109375 -0.300781 1.800781 -0.523438 1.46875 -0.859375 C 1.1875 -1.128906 0.945312 -1.5 0.75 -1.96875 C 0.632812 -2.226562 0.578125 -2.675781 0.578125 -3.3125 C 0.578125 -4.3125 0.722656 -5.09375 1.015625 -5.65625 C 1.273438 -6.15625 1.769531 -6.578125 2.5 -6.921875 L 3.234375 -6.921875 L 3.234375 -6.53125 C 2.804688 -6.332031 2.445312 -6.007812 2.15625 -5.5625 C 2 -5.320312 1.921875 -4.609375 1.921875 -3.421875 C 1.921875 -2.597656 2.039062 -1.953125 2.28125 -1.484375 C 2.570312 -0.910156 3 -0.628906 3.5625 -0.640625 C 3.851562 -0.648438 4.097656 -0.785156 4.296875 -1.046875 C 4.628906 -1.492188 4.796875 -1.957031 4.796875 -2.4375 L 4.796875 -4.78125 L 6 -4.78125 L 6 -2.4375 C 6 -1.957031 6.164062 -1.492188 6.5 -1.046875 C 6.695312 -0.785156 6.945312 -0.648438 7.25 -0.640625 C 7.800781 -0.628906 8.226562 -0.910156 8.53125 -1.484375 C 8.769531 -1.953125 8.890625 -2.597656 8.890625 -3.421875 C 8.890625 -4.609375 8.804688 -5.320312 8.640625 -5.5625 C 8.347656 -6.007812 7.988281 -6.332031 7.5625 -6.53125 L 7.5625 -6.921875 L 8.296875 -6.921875 C 9.023438 -6.578125 9.519531 -6.15625 9.78125 -5.65625 C 10.070312 -5.09375 10.21875 -4.3125 10.21875 -3.3125 C 10.21875 -2.675781 10.160156 -2.226562 10.046875 -1.96875 C 9.859375 -1.5 9.625 -1.128906 9.34375 -0.859375 C 9.007812 -0.523438 8.703125 -0.300781 8.421875 -0.1875 C 8.035156 -0.03125 7.644531 0.046875 7.25 0.046875 C 6.570312 0.015625 5.957031 -0.421875 5.40625 -1.265625 Z "/>
</g>
<g id="glyph-0-1">
<path d="M 1.140625 0 L 1.140625 -0.546875 L 2.265625 -0.546875 L 2.265625 -4.671875 L 0.953125 -3.984375 L 0.953125 -4.59375 L 2.515625 -5.4375 L 3.1875 -5.4375 L 3.1875 -0.546875 L 4.3125 -0.546875 L 4.3125 0 Z "/>
</g>
<g id="glyph-1-0">
<path d="M -8.421875 -10.21875 L -8.421875 -9.65625 L -1.09375 -9.65625 L -2.296875 -8.21875 L -1.96875 -7.890625 L -0.03125 -9.953125 L -1.96875 -12 L -2.296875 -11.65625 L -1.09375 -10.21875 Z "/>
</g>
</g>
</defs>
<g fill="rgb(51.372549%, 75.686275%, 40.392157%)" fill-opacity="1">
<use xlink:href="#glyph-0-0" x="30" y="32.375977"/>
</g>
<g fill="rgb(51.372549%, 75.686275%, 40.392157%)" fill-opacity="1">
<use xlink:href="#glyph-1-0" x="41" y="32.375977"/>
</g>
<g fill="rgb(51.372549%, 75.686275%, 40.392157%)" fill-opacity="1">
<use xlink:href="#glyph-0-1" x="41" y="32.375977"/>
</g>
</svg>
